# xmcd CD database file
#
# Track frame offsets:
#	150
#	15612
#	27489
#	41235
#	49374
#	60374
#	72682
#	93779
#	109498
#	120233
#	136328
#	149449
#	162013
#	173435
#	187576
#	197776
#	208565
#	224769
#	237175
#	249207
#	260158
#
# Disc length: 3650 seconds
#
# Revision: 0
# Processed by: cddbd v1.5.1PL0 Copyright (c) Steve Scherf et al.
# Submitted via: CDex 1.40Beta9
#
DISCID=310e4015
DTITLE=Armand Desrochers - Coeur de maman
DYEAR=2005
DGENRE=Country
TTITLE0=Coeur de maman
TTITLE1=Rappelle-toi
TTITLE2=Petite fleur
TTITLE3=Une femme c'est fin (quandça veut)
TTITLE4=Et moi je chante
TTITLE5=Il te cherche
TTITLE6=Terre paradis d'illusions
TTITLE7=Il est une place pour moi dans le ciel
TTITLE8=Il faut un ange dans le paradis
TTITLE9=Ma vie a bien changé
TTITLE10=Seul dans la vie
TTITLE11=Tu n'es pas encore chez toi
TTITLE12=Quelqu'un de plus grand que vous et moi
TTITLE13=Je préfère Jésus
TTITLE14=Un jour tu m'appelleras
TTITLE15=Écoute Dieu a parlé
TTITLE16=Rien que pour toi
TTITLE17=tu es venu trop tard
TTITLE18=C'est aussi pour toi
TTITLE19=Ta parole demeure
TTITLE20=Un chant d'amour en ton amour
EXTD=YEAR: 2005 ID3G: 2
EXTT0=
EXTT1=
EXTT2=
EXTT3=
EXTT4=
EXTT5=
EXTT6=
EXTT7=
EXTT8=
EXTT9=
EXTT10=
EXTT11=
EXTT12=
EXTT13=
EXTT14=
EXTT15=
EXTT16=
EXTT17=
EXTT18=
EXTT19=
EXTT20=
PLAYORDER=
